<svg xmlns="http://www.w3.org/2000/svg" xmlns:xlink="http://www.w3.org/1999/xlink" width="1000" zoomAndPan="magnify" viewBox="0 0 750 749.999995" height="1000" preserveAspectRatio="xMidYMid meet" version="1.0"><defs><clipPath id="e701db1b94"><path d="M 17.691406 34.816406 L 733 34.816406 L 733 749.996094 L 17.691406 749.996094 Z M 17.691406 34.816406 " clip-rule="nonzero"/></clipPath><clipPath id="6955b3187a"><path d="M 487 211 L 595.714844 211 L 595.714844 336 L 487 336 Z M 487 211 " clip-rule="nonzero"/></clipPath><clipPath id="8ea043ea35"><path d="M 225.269531 269.007812 L 524.726562 269.007812 L 524.726562 503.210938 L 225.269531 503.210938 Z M 225.269531 269.007812 " clip-rule="nonzero"/></clipPath><clipPath id="1b2adbe8cb"><path d="M 165.703125 551.640625 L 584 551.640625 L 584 750 L 165.703125 750 Z M 165.703125 551.640625 " clip-rule="nonzero"/></clipPath><clipPath id="900bd20043"><path d="M 0 685.90625 L 750 685.90625 L 750 749.65625 L 0 749.65625 Z M 0 685.90625 " clip-rule="nonzero"/></clipPath></defs><g clip-path="url(#e701db1b94)"><path fill="#b4b4b4" d="M 732.871094 392.40625 C 732.871094 589.890625 572.769531 749.996094 375.28125 749.996094 C 177.796875 749.996094 17.691406 589.890625 17.691406 392.40625 C 17.691406 194.917969 177.796875 34.816406 375.28125 34.816406 C 572.769531 34.816406 732.871094 194.917969 732.871094 392.40625 Z M 732.871094 392.40625 " fill-opacity="1" fill-rule="nonzero"/></g><path fill="#f5f3f5" d="M 309.949219 254.039062 C 312.945312 254.039062 315.957031 253.71875 318.960938 253.058594 C 334.21875 249.714844 346.457031 238.179688 353.410156 220.578125 C 359.851562 204.273438 361.015625 184.398438 356.679688 164.617188 C 352.347656 144.832031 342.984375 127.261719 330.3125 115.144531 C 316.636719 102.0625 300.703125 96.703125 285.441406 100.046875 C 270.179688 103.386719 257.941406 114.917969 250.988281 132.523438 C 244.546875 148.828125 243.382812 168.703125 247.714844 188.488281 C 256.191406 227.175781 282.46875 254.039062 309.949219 254.039062 " fill-opacity="1" fill-rule="nonzero"/><path fill="#f5f3f5" d="M 262.875 295.761719 C 263.335938 280.882812 258.574219 264.695312 249.457031 250.179688 C 240.34375 235.664062 227.835938 224.339844 214.234375 218.296875 C 199.363281 211.691406 184.859375 212.011719 173.398438 219.207031 C 161.941406 226.402344 155.347656 239.324219 154.839844 255.59375 C 154.375 270.464844 159.136719 286.652344 168.253906 301.167969 C 177.363281 315.683594 189.875 327.011719 203.472656 333.050781 C 210.582031 336.210938 217.601562 337.785156 224.242188 337.785156 C 231.511719 337.785156 238.324219 335.902344 244.308594 332.144531 C 255.773438 324.949219 262.359375 312.03125 262.875 295.761719 " fill-opacity="1" fill-rule="nonzero"/><path fill="#f5f3f5" d="M 431.035156 251.253906 C 434.003906 251.902344 436.988281 252.226562 439.980469 252.226562 C 452.402344 252.226562 464.890625 246.691406 475.914062 236.152344 C 488.585938 224.03125 497.945312 206.464844 502.28125 186.679688 C 506.613281 166.898438 505.453125 147.023438 499.011719 130.71875 C 492.054688 113.117188 479.820312 101.578125 464.558594 98.234375 C 434.03125 91.535156 402.714844 119.902344 393.316406 162.808594 C 383.917969 205.710938 400.488281 244.558594 431.035156 251.253906 " fill-opacity="1" fill-rule="nonzero"/><g clip-path="url(#6955b3187a)"><path fill="#f5f3f5" d="M 576.597656 217.398438 C 553.832031 203.105469 520.421875 216.707031 500.539062 248.375 C 480.660156 280.039062 482.917969 316.042969 505.6875 330.339844 C 511.671875 334.097656 518.488281 335.980469 525.753906 335.980469 C 532.398438 335.980469 539.417969 334.402344 546.523438 331.25 C 560.125 325.203125 572.632812 313.878906 581.746094 299.363281 C 590.859375 284.847656 595.621094 268.660156 595.15625 253.785156 C 594.648438 237.515625 588.054688 224.59375 576.597656 217.398438 " fill-opacity="1" fill-rule="nonzero"/></g><g clip-path="url(#8ea043ea35)"><path fill="#f5f3f5" d="M 498.039062 358.132812 L 429.53125 291.714844 C 399.410156 262.523438 350.585938 262.523438 320.46875 291.714844 L 251.957031 358.132812 L 251.792969 358.292969 C 221.191406 387.949219 216.371094 435.242188 242.226562 468.878906 C 264.601562 497.984375 300.980469 508.582031 333.554688 500.679688 L 333.558594 500.683594 C 333.566406 500.675781 333.574219 500.671875 333.582031 500.667969 C 339.71875 499.179688 345.710938 496.996094 351.453125 494.191406 C 366.902344 490.253906 383.089844 490.253906 398.542969 494.191406 C 404.289062 497 410.285156 499.179688 416.425781 500.671875 C 416.429688 500.675781 416.433594 500.675781 416.441406 500.679688 L 416.445312 500.683594 L 416.445312 500.679688 C 449.019531 508.582031 485.394531 497.984375 507.769531 468.882812 C 533.621094 435.246094 528.808594 387.957031 498.210938 358.296875 L 498.039062 358.132812 " fill-opacity="1" fill-rule="nonzero"/></g><g clip-path="url(#1b2adbe8cb)"><path fill="#f5f3f5" d="M 583.859375 760.714844 C 583.859375 876.183594 490.25 969.792969 374.78125 969.792969 C 259.316406 969.792969 165.703125 876.183594 165.703125 760.714844 C 165.703125 645.25 259.316406 551.640625 374.78125 551.640625 C 490.25 551.640625 583.859375 645.25 583.859375 760.714844 Z M 583.859375 760.714844 " fill-opacity="1" fill-rule="nonzero"/></g><g clip-path="url(#900bd20043)"><path fill="#b4b4b4" d="M 376.710938 745.101562 C 171.667969 745.101562 4.886719 578.320312 4.886719 373.277344 C 4.886719 168.234375 171.667969 1.453125 376.710938 1.453125 C 581.753906 1.453125 748.535156 168.234375 748.535156 373.277344 C 748.535156 578.320312 581.753906 745.101562 376.710938 745.101562 Z M 376.710938 -3.433594 C 168.988281 -3.433594 0 165.558594 0 373.277344 C 0 581 168.988281 749.988281 376.710938 749.988281 C 584.433594 749.988281 753.421875 581 753.421875 373.277344 C 753.421875 165.558594 584.433594 -3.433594 376.710938 -3.433594 " fill-opacity="1" fill-rule="nonzero"/></g></svg>