<svg xmlns="http://www.w3.org/2000/svg" xmlns:xlink="http://www.w3.org/1999/xlink" width="1080" zoomAndPan="magnify" viewBox="0 0 810 809.999993" height="1080" preserveAspectRatio="xMidYMid meet" version="1.0"><defs><clipPath id="431a7504c9"><path d="M 189 160 L 642 160 L 642 668 L 189 668 Z M 189 160 " clip-rule="nonzero"/></clipPath><clipPath id="6d414eaef1"><path d="M 299.863281 87.035156 L 727.84375 318.890625 L 508.847656 723.132812 L 80.867188 491.273438 Z M 299.863281 87.035156 " clip-rule="nonzero"/></clipPath><clipPath id="0fd0d4fc01"><path d="M 299.863281 87.035156 L 727.84375 318.890625 L 508.847656 723.132812 L 80.867188 491.273438 Z M 299.863281 87.035156 " clip-rule="nonzero"/></clipPath></defs><g clip-path="url(#431a7504c9)"><g clip-path="url(#6d414eaef1)"><g clip-path="url(#0fd0d4fc01)"><path fill="#fff7f0" d="M 589.21875 244.304688 C 588.339844 243.839844 587.417969 243.398438 586.492188 242.984375 C 547.742188 229.90625 507.957031 256.820312 487.230469 288.335938 C 466.863281 316.085938 459.195312 361.78125 488.480469 386.335938 C 492.761719 389.832031 497.949219 392.105469 503.304688 393.367188 C 550.148438 401.550781 593.328125 364.210938 608.667969 322.214844 C 620.609375 296.191406 616.472656 258.621094 589.21875 244.300781 Z M 438.105469 164.515625 C 415.777344 153.121094 386.507812 166.167969 371.632812 185.285156 C 341.726562 222.917969 332.644531 284.890625 368.871094 321.542969 C 372.453125 324.628906 376.605469 326.996094 381.050781 328.582031 C 413.003906 339.574219 443.222656 313.441406 456.367188 286.253906 C 474.4375 250.785156 478.183594 200.480469 447.175781 170.953125 C 444.332031 168.273438 441.292969 166.148438 438.105469 164.519531 Z M 620.320312 416.136719 C 580.964844 397.765625 534.226562 421.640625 511.261719 455.136719 C 492.339844 478.019531 487.4375 519.675781 515.554688 537.554688 C 556.578125 559.128906 607.972656 530.644531 629.425781 493.800781 C 645.425781 470.417969 647.125 432.429688 620.320312 416.136719 Z M 282.105469 243.824219 C 265.964844 234.902344 244.753906 235.972656 230.523438 249.589844 C 192.492188 286.027344 190.628906 357.257812 232.3125 391.832031 C 250 405.726562 275.238281 400.035156 289.828125 384.644531 C 320.941406 351.667969 324.136719 295.539062 298.003906 258.765625 C 293.96875 252.367188 288.417969 247.324219 282.101562 243.832031 Z M 410.152344 415.476562 C 378.324219 398.324219 337.292969 396.960938 303.695312 409.824219 C 266.296875 425.773438 230.4375 448.476562 204.171875 479.945312 C 181.738281 500.683594 185.503906 540.578125 212.589844 555.480469 C 244.800781 574.105469 285.074219 566.875 318.496094 582.824219 C 348.363281 593.5625 365.292969 621.296875 385.007812 644.128906 C 401.234375 664.601562 432.289062 676.949219 455.386719 660.0625 C 476.417969 641.492188 477.316406 610.027344 478.121094 583.851562 C 475.117188 539.03125 471.535156 491.691406 448.246094 452.109375 C 439.039062 436.007812 425.699219 423.855469 410.152344 415.476562 Z M 410.152344 415.476562 " fill-opacity="1" fill-rule="nonzero"/></g></g></g></svg>